<svg xmlns="http://www.w3.org/2000/svg" viewBox="0 0 2503 1134.63"><defs><style>.cls-1{fill:#fff;}.cls-2{fill:#00aa6b;}</style></defs><g id="Слой_8" data-name="Слой 8"><polyline class="cls-1" points="110 444.41 184 401.41 243 370.41 299 345.41 355 323.41 389 312.41 409 306.41 430 299.41 448 295.41 469 289.41 490 284.41 517 279.41 570 270.41 701 252.41 758 245.41 786 241.41 803 239.41 808 239.41 818 238.41 827 237.41 827 237.41 847 236.41 856 236.41 866 236.41 877 235.41 899.34 235.41 902.76 235.39 934.75 235.39 933 235.41 934 235.41 953.63 235.96 959.95 236.18 967.27 236.5 974.71 236.9 981.12 237.31 990.22 237.98 1001.57 238.99 1009.44 239.8 1020.79 241.11 1027.24 241.92 1034.55 242.88 1044.32 244.22 1051.15 245.19 1057.87 246.17 1063.48 247.02 1069.65 248.03 1075.67 249.08 1082.66 250.38 1089.34 251.69 1095.49 252.97 1103.85 254.32 1116.26 257.16 1125.79 259.49 1133.5 261.46 1149.86 265.92 1167.88 271.27 1176.8 274.3 1189 280.41 1213 289.41 1299 315.41 1380 318.41 1429.52 309.52 1444 303.41 1451 301.41 1461.71 297.53 1474 291.41 1486 285.41 1503 277.41 1534 263.41 1570 246.41 1597 234.41 1645 212.41 1831 137.41 2010 72.41 2211 22.41 2336 5.41 2404 5.41 2458 12.41 2484.48 21.45 2498 25.41 2503 1134.63 0 1047.41 110 444.41"/></g><g id="Слой_2" data-name="Слой 2"><path class="cls-2" d="M715,660.75l.95-5.92s59.46-7.72,115.19-7.92,162.57-3.39,292.72,37.67c67.59,26.38,123.72,40.23,175.81,41.38q7,.15,13.83,0c37.57-.82,73.33-8.41,110.19-22.84,0,0-66.15,40.06-140,33.32S1175.31,711,1130.28,688.64l-5.61-2.92S1068,666.54,1007.6,657.9c-60.26-8.63-91.19-11.55-182.13-10a11.91,11.91,0,0,0-1.19.09C818.09,648.78,767.09,644.34,715,660.75Z" transform="translate(50 -411.59)"/><path class="cls-2" d="M1386.81,721.11S2162.28,338.56,2449,437.51C2449,437.51,2246.11,284.69,1386.81,721.11Z" transform="translate(50 -411.59)"/></g><g id="Слой_5" data-name="Слой 5"><path class="cls-2" d="M746.17,651.56s-214.24,20.13-310.48,45-223,56.93-379.95,162.11c0,0,225.68-135.53,384.72-160.32C583,676.14,693,663.29,714.38,660.86a40,40,0,0,0,7.42-1.58Z" transform="translate(50 -411.59)"/></g></svg>