<svg width="277" height="72" viewBox="0 0 277 72" fill="none" xmlns="http://www.w3.org/2000/svg">
<g clip-path="url(#clip0_333_2)">
<path fill-rule="evenodd" clip-rule="evenodd" d="M89.71 47.9302H276.92V64.4302H89.71V47.9302Z" fill="url(#paint0_linear_333_2)"/>
<path fill-rule="evenodd" clip-rule="evenodd" d="M34.78 20.8102C35.75 20.7302 52.37 11.8302 59.13 17.7702C69.7 27.0602 52.73 55.6302 52.62 56.9802L59.97 52.6802C61.25 51.9802 62.35 51.3202 63.57 50.5802L74.75 44.1702C77.27 42.7702 79.59 41.2102 82.11 39.8802C81.77 38.4302 65.66 11.0102 64.6 9.08023C63.76 7.55023 62.84 6.20023 62.04 4.70023L56.09 8.17023C55.29 6.98023 50.29 0.590234 49.4 -0.00976562L30.35 14.9402C29.8 15.3302 30.64 15.3402 30.5 15.3502C32.4 15.1902 34.23 15.0402 36.52 15.1102C38.49 15.1702 40.65 15.7102 42.46 15.8602C41.81 16.7502 36.66 19.1802 34.78 20.8202V20.8102Z" fill="url(#paint1_linear_333_2)"/>
<path fill-rule="evenodd" clip-rule="evenodd" d="M0 40.7599C0.44 41.4099 0.97 42.0199 1.47 42.6499L6 48.4399C7.97 51.0199 10.02 53.5399 11.99 56.1299L23.99 71.4899C24.55 71.1199 25.08 70.6899 25.67 70.2899C25.84 70.9099 26.09 71.1599 26.39 71.7299C28.13 70.8099 29.71 69.7799 31.43 68.8499C33.51 67.7199 45.63 60.4599 46.55 60.2099C46.37 59.5199 45.67 58.7099 45.11 57.5699C44.59 56.5099 44.33 55.9399 43.88 54.7199C42.78 51.7599 40.39 49.0599 37.14 51.7599C35.26 53.3199 32.25 63.1999 27.58 56.1299C25.77 53.3899 24.05 48.5999 22.75 45.3599C22.02 43.5499 21.44 41.6099 20.86 39.5699C19.17 33.5299 19.18 31.9799 19.18 25.6499C18.2 26.1699 17.66 26.6899 16.81 27.3599L0 40.7599Z" fill="url(#paint2_linear_333_2)"/>
<path fill-rule="evenodd" clip-rule="evenodd" d="M53.09 28.0298C53.09 29.2398 53.8 31.7798 52.44 34.0698C50.27 37.7198 45.58 34.1998 40.8 35.3198C39.05 35.7298 37.36 37.0498 36.98 38.6898C38.3 38.6598 40.28 37.9398 43.06 39.2998C46.82 41.1398 47.02 46.0298 46.25 49.6998C45.68 52.4098 44.66 53.9798 44.41 55.0398C46.15 54.6298 48.94 52.0498 50.04 50.7598C54.22 45.8198 56.2 38.2598 54.41 31.6698C54.23 30.9998 54.03 30.2798 53.86 29.7398L53.17 28.1998C53.17 28.1998 53.11 28.0898 53.08 28.0398L53.09 28.0298Z" fill="url(#paint3_linear_333_2)"/>
<path fill-rule="evenodd" clip-rule="evenodd" d="M33.12 50.1202C33.04 49.1502 32.73 48.9202 32.43 48.1702C30.47 43.1302 29.69 35.3702 36.44 34.2402C37.45 34.0702 39.32 33.8002 40.32 34.2802C40.15 32.1902 37.18 30.6802 34.8 30.6802C30.46 30.6802 25.11 34.0702 24.59 26.2702C24.53 25.3802 24.88 24.6602 24.96 23.7202C24.71 24.0002 24.67 24.0502 24.48 24.4402C23.48 26.4402 23.25 29.2802 22.97 31.3402C22.34 35.9902 24.57 42.2102 27.66 45.7502C29.46 47.8102 30.53 48.7502 33.13 50.1202H33.12Z" fill="url(#paint4_linear_333_2)"/>
<path fill-rule="evenodd" clip-rule="evenodd" d="M27.6 25.6398C27.6 28.6998 29.89 29.5198 31.74 29.0798C36.66 27.8998 35.8 22.2798 32.4 22.2798H31.2C29.66 22.2798 27.6 24.0098 27.6 25.6398Z" fill="url(#paint5_linear_333_2)"/>
<path fill-rule="evenodd" clip-rule="evenodd" d="M42.44 29.02C42.44 33.23 46.93 34.43 49.07 32.68C52.11 30.19 49.17 26.29 45.9 26.29C44.21 26.29 42.43 27.38 42.43 29.02H42.44Z" fill="url(#paint6_linear_333_2)"/>
<path fill-rule="evenodd" clip-rule="evenodd" d="M60.24 29.0001C60.77 28.3901 60.93 27.4701 61.11 26.5101C61.3 25.4801 61.3 24.1301 61.11 23.0901C60 16.8001 50.72 18.3801 46.87 20.6801C46.4 20.9601 46.61 20.8201 46.31 21.0801C47.25 21.0001 47.62 20.7201 48.61 20.5001C51.08 19.9601 54.47 19.8001 56.48 20.7501C60 22.4101 60.23 25.1901 60.23 29.0001H60.24Z" fill="url(#paint7_linear_333_2)"/>
<path fill-rule="evenodd" clip-rule="evenodd" d="M54 28.0398L53.87 27.5298L54 28.0398Z" fill="url(#paint8_linear_333_2)"/>
<path fill-rule="evenodd" clip-rule="evenodd" d="M191.15 22.1899H201.28V25.9999H191.15V22.1899Z" fill="url(#paint9_linear_333_2)"/>
<path fill-rule="evenodd" clip-rule="evenodd" d="M210.32 30.0302C210.44 28.5002 214.83 15.4602 215.51 14.5802C216.3 15.1702 220.14 28.1302 220.78 30.0202H210.33L210.32 30.0302ZM207.05 33.6302L223.89 33.7002V38.6702L228 38.6402L227.95 30.0502L225.51 30.0202C223.73 25.6302 222.01 20.8102 220.41 16.1902C219.5 13.5602 218.86 9.38021 215.51 9.42021C211.74 9.47021 211.61 13.2202 210.53 16.1402L205.35 30.0302H203.19L203.21 38.6602H206.94L207.05 33.6302Z" fill="url(#paint10_linear_333_2)"/>
<path fill-rule="evenodd" clip-rule="evenodd" d="M89.42 9.62988V16.8299C89.42 19.6599 89.48 21.7899 89.81 22.4199C90.58 23.8699 93.03 24.0499 95.61 24.0499C97.61 24.0499 99.71 24.0199 101.08 24.0499L101.03 30.0299H89.74L89.7 33.6399C92.61 33.6399 96.69 33.6399 99.6 33.6399C103.7 33.6399 105.26 33.7799 105.26 29.3499C105.26 22.8799 105.44 16.1799 105.25 9.63988H101.1L101.07 20.3999L93.59 20.3399L93.56 9.63988H89.42V9.62988Z" fill="url(#paint11_linear_333_2)"/>
<path fill-rule="evenodd" clip-rule="evenodd" d="M161.21 20.1201H167.12C167.74 20.1201 167.62 20.0401 167.62 20.6801C167.62 23.4401 167.62 27.3001 167.62 29.9201C167.62 30.4401 167.7 30.3601 167.18 30.3601H161.21V20.1201ZM161.27 33.6801C163.19 33.5201 167.87 33.9101 169.31 33.4701C171.95 32.6601 171.4 30.1801 171.4 27.3401C171.4 17.8301 172.51 16.5201 165.91 16.5201C156.93 16.5201 157.42 15.5001 157.42 24.3601C157.42 29.2701 157.42 35.6201 157.42 40.5001L161.21 40.5201L161.27 33.6801Z" fill="url(#paint12_linear_333_2)"/>
<path fill-rule="evenodd" clip-rule="evenodd" d="M233.89 23.71L233.93 20.12H239.52C239.92 20.12 239.88 20.04 239.88 20.42V23.31C239.88 23.79 239.95 23.71 239.47 23.71C237.84 23.71 235.21 23.71 233.89 23.71ZM229.77 21.11V29.58C229.77 33.28 230.89 33.64 234.43 33.63C237.29 33.63 240.3 33.73 243.14 33.6L243.17 30.36H233.88C233.88 29.49 233.88 27.88 233.88 26.96C240.34 26.79 243.52 27.85 243.62 23.86C243.69 21.1 244.1 17.94 242.11 16.93C240.75 16.24 235.8 16.5 233.94 16.52C230.38 16.56 229.77 17.66 229.77 21.11Z" fill="url(#paint13_linear_333_2)"/>
<path fill-rule="evenodd" clip-rule="evenodd" d="M179.16 26.59C180.67 26.59 182.67 26.59 184.14 26.59C184.14 27.75 184.14 29.38 184.14 30.25H179.24C178.16 30.19 178.17 30.19 178.14 29.1C178.12 28.62 178.14 27.94 178.16 27.38C178.21 26.43 178.21 26.59 179.17 26.59H179.16ZM175.25 20.12H184.13V23.06C181.96 23.07 180.28 23.06 178.97 23.06C174.7 23.06 174.44 23.44 174.42 29.34C174.42 32.5 174.78 33.62 178.11 33.64C183.29 33.67 187.33 34.59 187.9 31.42L187.97 19.63C187.76 16.55 186.39 16.5 183.1 16.5C181.28 16.5 176.8 16.5 175.22 16.5L175.24 20.13L175.25 20.12Z" fill="url(#paint14_linear_333_2)"/>
<path fill-rule="evenodd" clip-rule="evenodd" d="M250.67 26.61L256.59 26.62L256.61 33.62L260.43 33.63L260.44 16.52H256.58V23.15H250.64V16.52L246.8 16.54L246.79 33.64L250.65 33.57L250.66 28.59L250.67 26.61Z" fill="url(#paint15_linear_333_2)"/>
<path fill-rule="evenodd" clip-rule="evenodd" d="M136.45 28.3698V29.9898C136.45 30.2498 136.23 30.4698 135.97 30.4698H133.45C133.35 30.4698 133.25 30.4698 133.15 30.4698H130.82C130.56 30.4698 130.34 30.2498 130.34 29.9898V26.9998C130.34 26.7398 130.56 26.5198 130.82 26.5198H135.97C136.23 26.5198 136.45 26.7398 136.45 26.9998V28.3698ZM126.48 16.5498C126.48 19.1698 126.48 26.3498 126.48 29.3398C126.48 31.1698 126.46 33.1298 128.79 33.5498C130.29 33.8198 133.34 33.6398 135 33.6398C137.08 33.6398 139.26 33.8998 139.97 32.0798C140.35 31.1198 140.33 27.3298 140.22 26.0898C139.98 23.4998 138.4 23.0598 135.73 23.0598C134.24 23.0598 132.42 23.0798 130.34 23.0498V16.5298L126.48 16.5498Z" fill="url(#paint16_linear_333_2)"/>
<path fill-rule="evenodd" clip-rule="evenodd" d="M111.65 33.6399C111.78 33.1199 115.91 21.3399 116.06 21.1699L121.04 33.6299H124.79L121.38 24.0199L119.56 19.3599C118.9 17.6899 118.48 16.4099 116.3 16.3399C114.61 16.2899 113.51 17.4599 112.84 19.2899L111.08 24.0999L107.72 33.6499H111.65V33.6399Z" fill="url(#paint17_linear_333_2)"/>
<path fill-rule="evenodd" clip-rule="evenodd" d="M140.58 20.0298H145.82L145.84 33.6398H149.87L149.9 20.0298L155.14 20.0098L155.04 16.5098H140.57L140.58 20.0298Z" fill="url(#paint18_linear_333_2)"/>
<path fill-rule="evenodd" clip-rule="evenodd" d="M262.67 20.0198L267.92 20.0298V33.6398H271.71L271.72 20.0298H276.92V16.5098L262.67 16.5198V20.0198Z" fill="url(#paint19_linear_333_2)"/>
<path d="M109.85 60.89C111.67 60.89 112.72 60.02 113.5 58.84L111.78 57.49C111.29 58.15 110.78 58.59 109.92 58.59C108.77 58.59 107.96 57.53 107.96 56.17C107.96 54.81 108.77 53.75 109.92 53.75C110.71 53.75 111.26 54.15 111.73 54.8L113.4 53.38C112.67 52.27 111.62 51.46 109.94 51.46C107.45 51.46 105.6 53.53 105.6 56.17C105.6 58.81 107.49 60.88 109.85 60.88V60.89Z" fill="white"/>
<path d="M121.74 60.8901H124.02V54.0301H126.49V51.8301H119.27V54.0301H121.74V60.8901Z" fill="white"/>
<path d="M145.46 60.8901H147.7V55.7101L149.28 58.9401H150.35L151.95 55.6901V60.8901H154.22V51.8301H151.8L149.84 55.9001L147.88 51.8301H145.46V60.8901Z" fill="white"/>
<path d="M159.98 60.8898H162.38L162.97 59.2698H166.15L166.75 60.8898H169.2L165.69 51.7598H163.49L159.98 60.8898ZM163.64 57.3098L164.57 54.7298L165.49 57.3098H163.64Z" fill="white"/>
<path d="M177.43 60.8901H179.71V54.0301H182.19V51.8301H174.96V54.0301H177.43V60.8901Z" fill="white"/>
<path d="M202.52 60.8899C204.12 60.8899 205.23 59.7799 205.23 54.2499V53.8999H207.15V60.7599H209.43V51.6899H203.1V52.9499C203.1 58.4399 202.49 58.7999 201.84 58.7999C201.73 58.7999 201.42 58.7699 201.31 58.7499L201.16 60.6799C201.34 60.7399 201.92 60.8899 202.52 60.8899Z" fill="white"/>
<path d="M228.4 60.8901H230.69V54.0301H234.33V51.8301H228.4V60.8901Z" fill="white"/>
<path d="M240.1 60.8901H242.23L245.42 55.7901V60.8901H247.68V51.8301H245.55L242.36 56.9301V51.8301H240.1V60.8901Z" fill="white"/>
<path d="M253.44 60.8898H256.08L257.74 58.1398H258.74V60.8898H261.02V51.8198H257.13C255.26 51.8198 253.72 52.7898 253.72 54.9198C253.72 56.3298 254.39 57.2498 255.41 57.7298L253.45 60.8898H253.44ZM257.23 56.2098C256.45 56.2098 256.01 55.7598 256.01 55.0998C256.01 54.3598 256.48 53.9598 257.25 53.9598H258.74V56.2098H257.23Z" fill="white"/>
<path fill-rule="evenodd" clip-rule="evenodd" d="M135.81 51.6401H136.14C137.12 51.6401 138.01 52.0401 138.65 52.6801C139.29 53.3201 139.69 54.2101 139.69 55.1901V57.3301C139.69 58.3101 139.29 59.2001 138.65 59.8401C138.01 60.4801 137.12 60.8801 136.15 60.8801H135.82C134.85 60.8801 133.96 60.4801 133.32 59.8401C132.68 59.1901 132.28 58.3001 132.28 57.3301V55.1901C132.28 54.2201 132.68 53.3301 133.32 52.6901C133.96 52.0401 134.85 51.6401 135.83 51.6401H135.81ZM135.81 53.7701H136.14C136.93 53.7701 137.57 54.4101 137.57 55.2001V57.3401C137.57 58.1301 136.93 58.7701 136.14 58.7701H135.81C135.02 58.7701 134.38 58.1301 134.38 57.3401V55.2001C134.38 54.4101 135.02 53.7701 135.81 53.7701Z" fill="white"/>
<path fill-rule="evenodd" clip-rule="evenodd" d="M191.51 51.6401H191.84C192.82 51.6401 193.71 52.0401 194.35 52.6801C194.99 53.3201 195.39 54.2101 195.39 55.1901V57.3301C195.39 58.3101 194.99 59.2001 194.35 59.8401C193.71 60.4801 192.82 60.8801 191.85 60.8801H191.52C190.55 60.8801 189.66 60.4801 189.02 59.8401C188.38 59.1901 187.98 58.3001 187.98 57.3301V55.1901C187.98 54.2201 188.38 53.3301 189.02 52.6901C189.66 52.0401 190.55 51.6401 191.53 51.6401H191.51ZM191.51 53.7701H191.84C192.63 53.7701 193.27 54.4101 193.27 55.2001V57.3401C193.27 58.1301 192.63 58.7701 191.84 58.7701H191.51C190.72 58.7701 190.08 58.1301 190.08 57.3401V55.2001C190.08 54.4101 190.72 53.7701 191.51 53.7701Z" fill="white"/>
<path fill-rule="evenodd" clip-rule="evenodd" d="M218.75 51.6401H219.08C220.06 51.6401 220.95 52.0401 221.59 52.6801C222.23 53.3201 222.63 54.2101 222.63 55.1901V57.3301C222.63 58.3101 222.23 59.2001 221.59 59.8401C220.95 60.4801 220.06 60.8801 219.09 60.8801H218.76C217.79 60.8801 216.9 60.4801 216.26 59.8401C215.62 59.1901 215.22 58.3001 215.22 57.3301V55.1901C215.22 54.2201 215.62 53.3301 216.26 52.6901C216.9 52.0401 217.79 51.6401 218.77 51.6401H218.75ZM218.75 53.7701H219.08C219.87 53.7701 220.51 54.4101 220.51 55.2001V57.3401C220.51 58.1301 219.87 58.7701 219.08 58.7701H218.75C217.96 58.7701 217.32 58.1301 217.32 57.3401V55.2001C217.32 54.4101 217.96 53.7701 218.75 53.7701Z" fill="white"/>
</g>
<defs>
<linearGradient id="paint0_linear_333_2" x1="183.315" y1="47.9302" x2="183.315" y2="64.4302" gradientUnits="userSpaceOnUse">
<stop stop-color="#05BC81"/>
<stop offset="0.6875" stop-color="#399C6C"/>
<stop offset="1" stop-color="#05BC81"/>
</linearGradient>
<linearGradient id="paint1_linear_333_2" x1="56.1355" y1="-0.00976563" x2="56.1355" y2="56.9802" gradientUnits="userSpaceOnUse">
<stop stop-color="#05BC81"/>
<stop offset="0.6875" stop-color="#399C6C"/>
<stop offset="1" stop-color="#05BC81"/>
</linearGradient>
<linearGradient id="paint2_linear_333_2" x1="23.275" y1="25.6499" x2="23.275" y2="71.7299" gradientUnits="userSpaceOnUse">
<stop stop-color="#05BC81"/>
<stop offset="0.6875" stop-color="#399C6C"/>
<stop offset="1" stop-color="#05BC81"/>
</linearGradient>
<linearGradient id="paint3_linear_333_2" x1="46.0251" y1="28.0298" x2="46.0251" y2="55.0398" gradientUnits="userSpaceOnUse">
<stop stop-color="#05BC81"/>
<stop offset="0.6875" stop-color="#399C6C"/>
<stop offset="1" stop-color="#05BC81"/>
</linearGradient>
<linearGradient id="paint4_linear_333_2" x1="31.5916" y1="23.7202" x2="31.5916" y2="50.1202" gradientUnits="userSpaceOnUse">
<stop stop-color="#05BC81"/>
<stop offset="0.6875" stop-color="#399C6C"/>
<stop offset="1" stop-color="#05BC81"/>
</linearGradient>
<linearGradient id="paint5_linear_333_2" x1="31.3952" y1="22.2798" x2="31.3952" y2="29.1903" gradientUnits="userSpaceOnUse">
<stop stop-color="#05BC81"/>
<stop offset="0.6875" stop-color="#399C6C"/>
<stop offset="1" stop-color="#05BC81"/>
</linearGradient>
<linearGradient id="paint6_linear_333_2" x1="46.3871" y1="26.29" x2="46.3871" y2="33.4571" gradientUnits="userSpaceOnUse">
<stop stop-color="#05BC81"/>
<stop offset="0.6875" stop-color="#399C6C"/>
<stop offset="1" stop-color="#05BC81"/>
</linearGradient>
<linearGradient id="paint7_linear_333_2" x1="53.7812" y1="18.6562" x2="53.7812" y2="29.0001" gradientUnits="userSpaceOnUse">
<stop stop-color="#05BC81"/>
<stop offset="0.6875" stop-color="#399C6C"/>
<stop offset="1" stop-color="#05BC81"/>
</linearGradient>
<linearGradient id="paint8_linear_333_2" x1="53.935" y1="27.5298" x2="53.935" y2="28.0398" gradientUnits="userSpaceOnUse">
<stop stop-color="#05BC81"/>
<stop offset="0.6875" stop-color="#399C6C"/>
<stop offset="1" stop-color="#05BC81"/>
</linearGradient>
<linearGradient id="paint9_linear_333_2" x1="196.215" y1="22.1899" x2="196.215" y2="25.9999" gradientUnits="userSpaceOnUse">
<stop stop-color="#05BC81"/>
<stop offset="0.6875" stop-color="#399C6C"/>
<stop offset="1" stop-color="#05BC81"/>
</linearGradient>
<linearGradient id="paint10_linear_333_2" x1="215.595" y1="9.41992" x2="215.595" y2="38.6702" gradientUnits="userSpaceOnUse">
<stop stop-color="#05BC81"/>
<stop offset="0.6875" stop-color="#399C6C"/>
<stop offset="1" stop-color="#05BC81"/>
</linearGradient>
<linearGradient id="paint11_linear_333_2" x1="97.3785" y1="9.62988" x2="97.3785" y2="33.6404" gradientUnits="userSpaceOnUse">
<stop stop-color="#05BC81"/>
<stop offset="0.6875" stop-color="#399C6C"/>
<stop offset="1" stop-color="#05BC81"/>
</linearGradient>
<linearGradient id="paint12_linear_333_2" x1="164.443" y1="16.4844" x2="164.443" y2="40.5201" gradientUnits="userSpaceOnUse">
<stop stop-color="#05BC81"/>
<stop offset="0.6875" stop-color="#399C6C"/>
<stop offset="1" stop-color="#05BC81"/>
</linearGradient>
<linearGradient id="paint13_linear_333_2" x1="236.736" y1="16.4556" x2="236.736" y2="33.6667" gradientUnits="userSpaceOnUse">
<stop stop-color="#05BC81"/>
<stop offset="0.6875" stop-color="#399C6C"/>
<stop offset="1" stop-color="#05BC81"/>
</linearGradient>
<linearGradient id="paint14_linear_333_2" x1="181.195" y1="16.5" x2="181.195" y2="33.7866" gradientUnits="userSpaceOnUse">
<stop stop-color="#05BC81"/>
<stop offset="0.6875" stop-color="#399C6C"/>
<stop offset="1" stop-color="#05BC81"/>
</linearGradient>
<linearGradient id="paint15_linear_333_2" x1="253.615" y1="16.52" x2="253.615" y2="33.64" gradientUnits="userSpaceOnUse">
<stop stop-color="#05BC81"/>
<stop offset="0.6875" stop-color="#399C6C"/>
<stop offset="1" stop-color="#05BC81"/>
</linearGradient>
<linearGradient id="paint16_linear_333_2" x1="133.385" y1="16.5298" x2="133.385" y2="33.6986" gradientUnits="userSpaceOnUse">
<stop stop-color="#05BC81"/>
<stop offset="0.6875" stop-color="#399C6C"/>
<stop offset="1" stop-color="#05BC81"/>
</linearGradient>
<linearGradient id="paint17_linear_333_2" x1="116.255" y1="16.3384" x2="116.255" y2="33.6499" gradientUnits="userSpaceOnUse">
<stop stop-color="#05BC81"/>
<stop offset="0.6875" stop-color="#399C6C"/>
<stop offset="1" stop-color="#05BC81"/>
</linearGradient>
<linearGradient id="paint18_linear_333_2" x1="147.855" y1="16.5098" x2="147.855" y2="33.6398" gradientUnits="userSpaceOnUse">
<stop stop-color="#05BC81"/>
<stop offset="0.6875" stop-color="#399C6C"/>
<stop offset="1" stop-color="#05BC81"/>
</linearGradient>
<linearGradient id="paint19_linear_333_2" x1="269.795" y1="16.5098" x2="269.795" y2="33.6398" gradientUnits="userSpaceOnUse">
<stop stop-color="#05BC81"/>
<stop offset="0.6875" stop-color="#399C6C"/>
<stop offset="1" stop-color="#05BC81"/>
</linearGradient>
<clipPath id="clip0_333_2">
<rect width="276.92" height="71.72" fill="white"/>
</clipPath>
</defs>
</svg>
