<svg width="285" height="80" viewBox="0 0 285 80" fill="none" xmlns="http://www.w3.org/2000/svg">
<g clip-path="url(#clip0_333_2)" filter="url(#filter0_d_333_2)">
<path fill-rule="evenodd" clip-rule="evenodd" d="M38.78 20.8102C39.75 20.7302 56.37 11.8302 63.13 17.7702C73.7 27.0602 56.73 55.6302 56.62 56.9802L63.97 52.6802C65.25 51.9802 66.35 51.3202 67.57 50.5802L78.75 44.1702C81.27 42.7702 83.59 41.2102 86.11 39.8802C85.77 38.4302 69.66 11.0102 68.6 9.08023C67.76 7.55023 66.84 6.20023 66.04 4.70023L60.09 8.17023C59.29 6.98023 54.29 0.590234 53.4 -0.00976562L34.35 14.9402C33.8 15.3302 34.64 15.3402 34.5 15.3502C36.4 15.1902 38.23 15.0402 40.52 15.1102C42.49 15.1702 44.65 15.7102 46.46 15.8602C45.81 16.7502 40.66 19.1802 38.78 20.8202V20.8102Z" fill="white"/>
<path fill-rule="evenodd" clip-rule="evenodd" d="M4 40.7599C4.44 41.4099 4.97 42.0199 5.47 42.6499L10 48.4399C11.97 51.0199 14.02 53.5399 15.99 56.1299L27.99 71.4899C28.55 71.1199 29.08 70.6899 29.67 70.2899C29.84 70.9099 30.09 71.1599 30.39 71.7299C32.13 70.8099 33.71 69.7799 35.43 68.8499C37.51 67.7199 49.63 60.4599 50.55 60.2099C50.37 59.5199 49.67 58.7099 49.11 57.5699C48.59 56.5099 48.33 55.9399 47.88 54.7199C46.78 51.7599 44.39 49.0599 41.14 51.7599C39.26 53.3199 36.25 63.1999 31.58 56.1299C29.77 53.3899 28.05 48.5999 26.75 45.3599C26.02 43.5499 25.44 41.6099 24.86 39.5699C23.17 33.5299 23.18 31.9799 23.18 25.6499C22.2 26.1699 21.66 26.6899 20.81 27.3599L4 40.7599Z" fill="white"/>
<path fill-rule="evenodd" clip-rule="evenodd" d="M57.09 28.0298C57.09 29.2398 57.8 31.7798 56.44 34.0698C54.27 37.7198 49.58 34.1998 44.8 35.3198C43.05 35.7298 41.36 37.0498 40.98 38.6898C42.3 38.6598 44.28 37.9398 47.06 39.2998C50.82 41.1398 51.02 46.0298 50.25 49.6998C49.68 52.4098 48.66 53.9798 48.41 55.0398C50.15 54.6298 52.94 52.0498 54.04 50.7598C58.22 45.8198 60.2 38.2598 58.41 31.6698C58.23 30.9998 58.03 30.2798 57.86 29.7398L57.17 28.1998C57.17 28.1998 57.11 28.0898 57.08 28.0398L57.09 28.0298Z" fill="white"/>
<path fill-rule="evenodd" clip-rule="evenodd" d="M37.12 50.1202C37.04 49.1502 36.73 48.9202 36.43 48.1702C34.47 43.1302 33.69 35.3702 40.44 34.2402C41.45 34.0702 43.32 33.8002 44.32 34.2802C44.15 32.1902 41.18 30.6802 38.8 30.6802C34.46 30.6802 29.11 34.0702 28.59 26.2702C28.53 25.3802 28.88 24.6602 28.96 23.7202C28.71 24.0002 28.67 24.0502 28.48 24.4402C27.48 26.4402 27.25 29.2802 26.97 31.3402C26.34 35.9902 28.57 42.2102 31.66 45.7502C33.46 47.8102 34.53 48.7502 37.13 50.1202H37.12Z" fill="white"/>
<path fill-rule="evenodd" clip-rule="evenodd" d="M31.6 25.6398C31.6 28.6998 33.89 29.5198 35.74 29.0798C40.66 27.8998 39.8 22.2798 36.4 22.2798H35.2C33.66 22.2798 31.6 24.0098 31.6 25.6398Z" fill="white"/>
<path fill-rule="evenodd" clip-rule="evenodd" d="M46.44 29.02C46.44 33.23 50.93 34.43 53.07 32.68C56.11 30.19 53.17 26.29 49.9 26.29C48.21 26.29 46.43 27.38 46.43 29.02H46.44Z" fill="white"/>
<path fill-rule="evenodd" clip-rule="evenodd" d="M64.24 29.0001C64.77 28.3901 64.93 27.4701 65.11 26.5101C65.3 25.4801 65.3 24.1301 65.11 23.0901C64 16.8001 54.72 18.3801 50.87 20.6801C50.4 20.9601 50.61 20.8201 50.31 21.0801C51.25 21.0001 51.62 20.7201 52.61 20.5001C55.08 19.9601 58.47 19.8001 60.48 20.7501C64 22.4101 64.23 25.1901 64.23 29.0001H64.24Z" fill="white"/>
<path fill-rule="evenodd" clip-rule="evenodd" d="M58 28.0398L57.87 27.5298L58 28.0398Z" fill="white"/>
<path fill-rule="evenodd" clip-rule="evenodd" d="M195.15 22.1899H205.28V25.9999H195.15V22.1899Z" fill="white"/>
<path fill-rule="evenodd" clip-rule="evenodd" d="M214.32 30.0302C214.44 28.5002 218.83 15.4602 219.51 14.5802C220.3 15.1702 224.14 28.1302 224.78 30.0202H214.33L214.32 30.0302ZM211.05 33.6302L227.89 33.7002V38.6702L232 38.6402L231.95 30.0502L229.51 30.0202C227.73 25.6302 226.01 20.8102 224.41 16.1902C223.5 13.5602 222.86 9.38021 219.51 9.42021C215.74 9.47021 215.61 13.2202 214.53 16.1402L209.35 30.0302H207.19L207.21 38.6602H210.94L211.05 33.6302Z" fill="white"/>
<path fill-rule="evenodd" clip-rule="evenodd" d="M93.42 9.62988V16.8299C93.42 19.6599 93.48 21.7899 93.81 22.4199C94.58 23.8699 97.03 24.0499 99.61 24.0499C101.61 24.0499 103.71 24.0199 105.08 24.0499L105.03 30.0299H93.74L93.7 33.6399C96.61 33.6399 100.69 33.6399 103.6 33.6399C107.7 33.6399 109.26 33.7799 109.26 29.3499C109.26 22.8799 109.44 16.1799 109.25 9.63988H105.1L105.07 20.3999L97.59 20.3399L97.56 9.63988H93.42V9.62988Z" fill="white"/>
<path fill-rule="evenodd" clip-rule="evenodd" d="M165.21 20.1201H171.12C171.74 20.1201 171.62 20.0401 171.62 20.6801C171.62 23.4401 171.62 27.3001 171.62 29.9201C171.62 30.4401 171.7 30.3601 171.18 30.3601H165.21V20.1201ZM165.27 33.6801C167.19 33.5201 171.87 33.9101 173.31 33.4701C175.95 32.6601 175.4 30.1801 175.4 27.3401C175.4 17.8301 176.51 16.5201 169.91 16.5201C160.93 16.5201 161.42 15.5001 161.42 24.3601C161.42 29.2701 161.42 35.6201 161.42 40.5001L165.21 40.5201L165.27 33.6801Z" fill="white"/>
<path fill-rule="evenodd" clip-rule="evenodd" d="M237.89 23.71L237.93 20.12H243.52C243.92 20.12 243.88 20.04 243.88 20.42V23.31C243.88 23.79 243.95 23.71 243.47 23.71C241.84 23.71 239.21 23.71 237.89 23.71ZM233.77 21.11V29.58C233.77 33.28 234.89 33.64 238.43 33.63C241.29 33.63 244.3 33.73 247.14 33.6L247.17 30.36H237.88C237.88 29.49 237.88 27.88 237.88 26.96C244.34 26.79 247.52 27.85 247.62 23.86C247.69 21.1 248.1 17.94 246.11 16.93C244.75 16.24 239.8 16.5 237.94 16.52C234.38 16.56 233.77 17.66 233.77 21.11Z" fill="white"/>
<path fill-rule="evenodd" clip-rule="evenodd" d="M183.16 26.59C184.67 26.59 186.67 26.59 188.14 26.59C188.14 27.75 188.14 29.38 188.14 30.25H183.24C182.16 30.19 182.17 30.19 182.14 29.1C182.12 28.62 182.14 27.94 182.16 27.38C182.21 26.43 182.21 26.59 183.17 26.59H183.16ZM179.25 20.12H188.13V23.06C185.96 23.07 184.28 23.06 182.97 23.06C178.7 23.06 178.44 23.44 178.42 29.34C178.42 32.5 178.78 33.62 182.11 33.64C187.29 33.67 191.33 34.59 191.9 31.42L191.97 19.63C191.76 16.55 190.39 16.5 187.1 16.5C185.28 16.5 180.8 16.5 179.22 16.5L179.24 20.13L179.25 20.12Z" fill="white"/>
<path fill-rule="evenodd" clip-rule="evenodd" d="M254.67 26.61L260.59 26.62L260.61 33.62L264.43 33.63L264.44 16.52H260.58V23.15H254.64V16.52L250.8 16.54L250.79 33.64L254.65 33.57L254.66 28.59L254.67 26.61Z" fill="white"/>
<path fill-rule="evenodd" clip-rule="evenodd" d="M140.45 28.3698V29.9898C140.45 30.2498 140.23 30.4698 139.97 30.4698H137.45C137.35 30.4698 137.25 30.4698 137.15 30.4698H134.82C134.56 30.4698 134.34 30.2498 134.34 29.9898V26.9998C134.34 26.7398 134.56 26.5198 134.82 26.5198H139.97C140.23 26.5198 140.45 26.7398 140.45 26.9998V28.3698ZM130.48 16.5498C130.48 19.1698 130.48 26.3498 130.48 29.3398C130.48 31.1698 130.46 33.1298 132.79 33.5498C134.29 33.8198 137.34 33.6398 139 33.6398C141.08 33.6398 143.26 33.8998 143.97 32.0798C144.35 31.1198 144.33 27.3298 144.22 26.0898C143.98 23.4998 142.4 23.0598 139.73 23.0598C138.24 23.0598 136.42 23.0798 134.34 23.0498V16.5298L130.48 16.5498Z" fill="white"/>
<path fill-rule="evenodd" clip-rule="evenodd" d="M115.65 33.6399C115.78 33.1199 119.91 21.3399 120.06 21.1699L125.04 33.6299H128.79L125.38 24.0199L123.56 19.3599C122.9 17.6899 122.48 16.4099 120.3 16.3399C118.61 16.2899 117.51 17.4599 116.84 19.2899L115.08 24.0999L111.72 33.6499H115.65V33.6399Z" fill="white"/>
<path fill-rule="evenodd" clip-rule="evenodd" d="M144.58 20.0298H149.82L149.84 33.6398H153.87L153.9 20.0298L159.14 20.0098L159.04 16.5098H144.57L144.58 20.0298Z" fill="white"/>
<path fill-rule="evenodd" clip-rule="evenodd" d="M266.67 20.0198L271.92 20.0298V33.6398H275.71L275.72 20.0298H280.92V16.5098L266.67 16.5198V20.0198Z" fill="white"/>
<path fill-rule="evenodd" clip-rule="evenodd" d="M280.92 47.9302H93.71V64.4302H280.92V47.9302ZM113.85 60.89C115.67 60.89 116.72 60.02 117.5 58.84L115.78 57.49C115.29 58.15 114.78 58.59 113.92 58.59C112.77 58.59 111.96 57.53 111.96 56.17C111.96 54.81 112.77 53.75 113.92 53.75C114.71 53.75 115.26 54.15 115.73 54.8L117.4 53.38C116.67 52.27 115.62 51.46 113.94 51.46C111.45 51.46 109.6 53.53 109.6 56.17C109.6 58.81 111.49 60.88 113.85 60.88V60.89ZM125.74 60.8901H128.02V54.0301H130.49V51.8301H123.27V54.0301H125.74V60.8901ZM151.7 60.8901H149.46V51.8301H151.88L153.84 55.9001L155.8 51.8301H158.22V60.8901H155.95V55.6901L154.35 58.9401H153.28L151.7 55.7101V60.8901ZM163.98 60.8898H166.38L166.97 59.2698H170.15L170.75 60.8898H173.2L169.69 51.7598H167.49L163.98 60.8898ZM167.64 57.3098L168.57 54.7298L169.49 57.3098H167.64ZM183.71 60.8901H181.43V54.0301H178.96V51.8301H186.19V54.0301H183.71V60.8901ZM206.52 60.8899C208.12 60.8899 209.23 59.7799 209.23 54.2499V53.8999H211.15V60.7599H213.43V51.6899H207.1V52.9499C207.1 58.4399 206.49 58.7999 205.84 58.7999C205.73 58.7999 205.42 58.7699 205.31 58.7499L205.16 60.6799C205.34 60.7399 205.92 60.8899 206.52 60.8899ZM234.69 60.8901H232.4V51.8301H238.33V54.0301H234.69V60.8901ZM244.1 60.8901H246.23L249.42 55.7901V60.8901H251.68V51.8301H249.55L246.36 56.9301V51.8301H244.1V60.8901ZM260.08 60.8898H257.45L259.41 57.7298C258.39 57.2498 257.72 56.3298 257.72 54.9198C257.72 52.7898 259.26 51.8198 261.13 51.8198H265.02V60.8898H262.74V58.1398H261.74L260.08 60.8898ZM260.01 55.0998C260.01 55.7598 260.45 56.2098 261.23 56.2098H262.74V53.9598H261.25C260.48 53.9598 260.01 54.3598 260.01 55.0998ZM139.83 51.6401H140.14C141.12 51.6401 142.01 52.0401 142.65 52.6801C143.29 53.3201 143.69 54.2101 143.69 55.1901V57.3301C143.69 58.3101 143.29 59.2001 142.65 59.8401C142.01 60.4801 141.12 60.8801 140.15 60.8801H139.82C138.85 60.8801 137.96 60.4801 137.32 59.8401C136.68 59.1901 136.28 58.3001 136.28 57.3301V55.1901C136.28 54.2201 136.68 53.3301 137.32 52.6901C137.96 52.0401 138.85 51.6401 139.83 51.6401ZM139.81 53.7701H140.14C140.93 53.7701 141.57 54.4101 141.57 55.2001V57.3401C141.57 58.1301 140.93 58.7701 140.14 58.7701H139.81C139.02 58.7701 138.38 58.1301 138.38 57.3401V55.2001C138.38 54.4101 139.02 53.7701 139.81 53.7701ZM195.84 51.6401H195.53C194.55 51.6401 193.66 52.0401 193.02 52.6901C192.38 53.3301 191.98 54.2201 191.98 55.1901V57.3301C191.98 58.3001 192.38 59.1901 193.02 59.8401C193.66 60.4801 194.55 60.8801 195.52 60.8801H195.85C196.82 60.8801 197.71 60.4801 198.35 59.8401C198.99 59.2001 199.39 58.3101 199.39 57.3301V55.1901C199.39 54.2101 198.99 53.3201 198.35 52.6801C197.71 52.0401 196.82 51.6401 195.84 51.6401ZM195.84 53.7701H195.51C194.72 53.7701 194.08 54.4101 194.08 55.2001V57.3401C194.08 58.1301 194.72 58.7701 195.51 58.7701H195.84C196.63 58.7701 197.27 58.1301 197.27 57.3401V55.2001C197.27 54.4101 196.63 53.7701 195.84 53.7701ZM222.77 51.6401H223.08C224.06 51.6401 224.95 52.0401 225.59 52.6801C226.23 53.3201 226.63 54.2101 226.63 55.1901V57.3301C226.63 58.3101 226.23 59.2001 225.59 59.8401C224.95 60.4801 224.06 60.8801 223.09 60.8801H222.76C221.79 60.8801 220.9 60.4801 220.26 59.8401C219.62 59.1901 219.22 58.3001 219.22 57.3301V55.1901C219.22 54.2201 219.62 53.3301 220.26 52.6901C220.9 52.0401 221.79 51.6401 222.77 51.6401ZM222.75 53.7701H223.08C223.87 53.7701 224.51 54.4101 224.51 55.2001V57.3401C224.51 58.1301 223.87 58.7701 223.08 58.7701H222.75C221.96 58.7701 221.32 58.1301 221.32 57.3401V55.2001C221.32 54.4101 221.96 53.7701 222.75 53.7701Z" fill="white"/>
</g>
<defs>
<filter id="filter0_d_333_2" x="0" y="0" width="284.92" height="79.7202" filterUnits="userSpaceOnUse" color-interpolation-filters="sRGB">
<feFlood flood-opacity="0" result="BackgroundImageFix"/>
<feColorMatrix in="SourceAlpha" type="matrix" values="0 0 0 0 0 0 0 0 0 0 0 0 0 0 0 0 0 0 127 0" result="hardAlpha"/>
<feOffset dy="4"/>
<feGaussianBlur stdDeviation="2"/>
<feComposite in2="hardAlpha" operator="out"/>
<feColorMatrix type="matrix" values="0 0 0 0 0 0 0 0 0 0 0 0 0 0 0 0 0 0 0.25 0"/>
<feBlend mode="normal" in2="BackgroundImageFix" result="effect1_dropShadow_333_2"/>
<feBlend mode="normal" in="SourceGraphic" in2="effect1_dropShadow_333_2" result="shape"/>
</filter>
<clipPath id="clip0_333_2">
<rect width="276.92" height="71.72" fill="white" transform="translate(4)"/>
</clipPath>
</defs>
</svg>
