<svg width="34" height="33" viewBox="0 0 34 33" fill="none" xmlns="http://www.w3.org/2000/svg">
<g clip-path="url(#clip0_115_85)">
<path d="M10.6675 29.535C8.33736 28.4698 6.33257 26.8349 4.84985 24.7907C3.36713 22.7466 2.45743 20.3634 2.21002 17.875H0.085022C0.807522 26.345 8.10336 33 17.0142 33L17.9492 32.9587L12.5517 27.72L10.6675 29.535ZM11.9284 20.57C11.6592 20.57 11.4042 20.5287 11.1917 20.46C10.9801 20.3918 10.7866 20.2791 10.625 20.13C10.4692 19.9925 10.3417 19.8275 10.2567 19.6213C10.1717 19.4288 10.1292 19.2087 10.1292 18.975H8.28752C8.28752 19.47 8.38669 19.91 8.58502 20.2812C8.78336 20.6525 9.05252 20.9688 9.37836 21.23C9.71836 21.4775 10.1009 21.67 10.54 21.7938C10.965 21.9312 11.4184 22 11.9 22C12.4242 22 12.92 21.9312 13.3592 21.7938C13.8125 21.6562 14.2092 21.45 14.535 21.1887C14.8609 20.9275 15.13 20.5975 15.3142 20.1987C15.4984 19.8 15.5975 19.36 15.5975 18.865C15.5975 18.6038 15.5692 18.3425 15.4984 18.095C15.4311 17.8451 15.321 17.6081 15.1725 17.3937C15.0309 17.1737 14.8325 16.9813 14.6059 16.8025C14.365 16.6238 14.0817 16.4862 13.7417 16.3762C14.2538 16.1548 14.6909 15.7973 15.0025 15.345C15.1442 15.1388 15.2434 14.9325 15.3142 14.7125C15.385 14.4925 15.4134 14.2725 15.4134 14.0525C15.4134 13.5575 15.3284 13.1175 15.1584 12.7325C14.9884 12.3475 14.7475 12.0312 14.4359 11.7837C14.1525 11.5225 13.77 11.33 13.345 11.1925C12.9059 11.0688 12.4242 11 11.9 11C11.39 11 10.9225 11.0687 10.4834 11.22C10.0584 11.3713 9.67586 11.5775 9.36419 11.8387C9.06669 12.1 8.82586 12.4025 8.64169 12.76C8.47169 13.1175 8.38669 13.5025 8.38669 13.9288H10.2284C10.2284 13.695 10.2709 13.4888 10.3559 13.31C10.4409 13.1313 10.5542 12.9663 10.71 12.8425C10.8659 12.7188 11.0359 12.6087 11.2484 12.54C11.4609 12.4712 11.6734 12.43 11.9284 12.43C12.495 12.43 12.92 12.5675 13.1892 12.8563C13.4584 13.1313 13.6 13.53 13.6 14.0387C13.6 14.2863 13.5575 14.5062 13.4867 14.7125C13.4159 14.9187 13.2884 15.0837 13.1325 15.2212C12.9767 15.3587 12.7784 15.4688 12.5517 15.5513C12.325 15.6338 12.0417 15.675 11.73 15.675H10.6392V17.0913H11.73C12.0417 17.0913 12.325 17.1187 12.58 17.1875C12.835 17.2563 13.0475 17.3662 13.2175 17.5037C13.3875 17.655 13.5292 17.8337 13.6284 18.0538C13.7275 18.2738 13.77 18.535 13.77 18.8375C13.77 19.4012 13.6 19.8275 13.2742 20.1163C12.9484 20.4325 12.495 20.57 11.9284 20.57ZM24.0409 12.43C23.5875 11.9762 23.0492 11.6188 22.4259 11.3713C21.8025 11.1238 21.1084 11 20.3434 11H17V22H20.2584C21.0375 22 21.76 21.8762 22.3975 21.6287C23.035 21.3812 23.5875 21.0375 24.0409 20.5837C24.4942 20.13 24.8484 19.58 25.0892 18.9475C25.33 18.3013 25.4575 17.5863 25.4575 16.7887V16.2388C25.4575 15.4413 25.33 14.7262 25.0892 14.08C24.8484 13.4338 24.4942 12.8837 24.0409 12.43ZM23.4884 16.775C23.4884 17.3525 23.4175 17.8612 23.29 18.3288C23.1484 18.7825 22.95 19.1812 22.6809 19.4975C22.4117 19.8138 22.0717 20.0613 21.675 20.2262C21.2642 20.3913 20.7967 20.4738 20.2725 20.4738H18.9834V12.54H20.3575C21.3775 12.54 22.1567 12.8563 22.6809 13.4888C23.2192 14.1213 23.4884 15.0288 23.4884 16.225V16.775ZM17.0142 0L16.0792 0.04125L21.4767 5.28L23.3609 3.45125C27.9934 5.5825 31.3084 9.94125 31.8042 15.1112H33.9292C33.2209 6.655 25.925 0 17.0142 0Z" fill="white"/>
</g>
<defs>
<clipPath id="clip0_115_85">
<rect width="34" height="33" fill="white"/>
</clipPath>
</defs>
</svg>
