<svg width="116" height="116" viewBox="0 0 116 116" fill="none" xmlns="http://www.w3.org/2000/svg">
<path d="M46.4681 80.0122L79.9955 58.4588L46.4681 36.9055V80.0122ZM58.4421 106.355C51.8165 106.355 45.59 105.097 39.7626 102.581C33.9352 100.068 28.8662 96.6562 24.5555 92.3455C20.2448 88.0348 16.833 82.9658 14.32 77.1384C11.8039 71.311 10.5458 65.0845 10.5458 58.4588C10.5458 51.8332 11.8039 45.6066 14.32 39.7793C16.833 33.9519 20.2448 28.8828 24.5555 24.5722C28.8662 20.2615 33.9352 16.8481 39.7626 14.3319C45.59 11.819 51.8165 10.5625 58.4421 10.5625C65.0678 10.5625 71.2943 11.819 77.1217 14.3319C82.9491 16.8481 88.0181 20.2615 92.3288 24.5722C96.6395 28.8828 100.051 33.9519 102.564 39.7793C105.08 45.6066 106.338 51.8332 106.338 58.4588C106.338 65.0845 105.08 71.311 102.564 77.1384C100.051 82.9658 96.6395 88.0348 92.3288 92.3455C88.0181 96.6562 82.9491 100.068 77.1217 102.581C71.2943 105.097 65.0678 106.355 58.4421 106.355ZM58.4421 96.7759C69.139 96.7759 78.1994 93.0639 85.6233 85.64C93.0472 78.2161 96.7592 69.1557 96.7592 58.4588C96.7592 47.762 93.0472 38.7016 85.6233 31.2777C78.1994 23.8537 69.139 20.1418 58.4421 20.1418C47.7453 20.1418 38.6849 23.8537 31.261 31.2777C23.837 38.7016 20.1251 47.762 20.1251 58.4588C20.1251 69.1557 23.837 78.2161 31.261 85.64C38.6849 93.0639 47.7453 96.7759 58.4421 96.7759Z" fill="#f7f7f7"/>
</svg>
