<!-- icon666.com - MILLIONS vector ICONS FREE --><svg viewBox="0 0 176 176" xmlns="http://www.w3.org/2000/svg"><g id="Layer_2" data-name="Layer 2" width="100%" height="100%"><g id="_66.odnoklassniki" data-name="66.odnoklassniki"><path id="icon" d="m88 0a88 88 0 1 0 88 88 88 88 0 0 0 -88-88zm.11 33a27.84 27.84 0 1 1 -27.93 27.77 27.85 27.85 0 0 1 27.93-27.77zm31.18 66.61a33.43 33.43 0 0 1 -12.05 7.79 56.61 56.61 0 0 1 -13.68 3.07c.7.76 1 1.14 1.48 1.58 6.33 6.36 12.69 12.7 19 19.09a6.28 6.28 0 0 1 1.42 7.4 7.51 7.51 0 0 1 -7 4.39 6.87 6.87 0 0 1 -4.45-2.28c-4.78-4.81-9.65-9.53-14.33-14.43-1.36-1.43-2-1.16-3.22.08-4.81 5-9.7 9.82-14.61 14.67a6.12 6.12 0 0 1 -7.4 1.32 7.47 7.47 0 0 1 -4.32-6.88 6.94 6.94 0 0 1 2.32-4.63q9.41-9.39 18.77-18.8c.42-.42.8-.86 1.41-1.5-8.53-.89-16.22-3-22.8-8.14a30.54 30.54 0 0 1 -2.41-2c-2.88-2.76-3.17-5.93-.89-9.2 1.95-2.79 5.22-3.54 8.63-1.94a13.42 13.42 0 0 1 1.84 1.14 37.38 37.38 0 0 0 41.43.38 11.13 11.13 0 0 1 4-2.09 6.33 6.33 0 0 1 7.25 2.9c1.85 2.93 1.83 5.8-.39 8.08zm-31.22-25.15a13.63 13.63 0 1 0 -13.7-13.46 13.54 13.54 0 0 0 13.7 13.46z" fill="#000000" style="fill: rgb(255, 255, 255);"></path></g></g></svg>